<svg xmlns="http://www.w3.org/2000/svg" version="1.1" xmlns:xlink="http://www.w3.org/1999/xlink" xmlns:svgjs="http://svgjs.dev/svgjs" viewBox="0 0 800 800" opacity="0.44" width="800" height="800"><g stroke-width="1.25" stroke="hsla(0, 0%, 0%, 1.00)" fill="none"><rect width="33.333333333333336" height="2.894736842105263" x="-16.666666666666668" y="-1.4473684210526314" stroke="none" fill="hsla(0, 0%, 0%, 1.00)" rx="1.4473684210526314"></rect><rect width="2.894736842105263" height="33.333333333333336" x="-1.4473684210526314" y="-16.666666666666668" stroke="none" fill="hsla(0, 0%, 0%, 1.00)" rx="1.4473684210526314"></rect><rect width="33.333333333333336" height="2.894736842105263" x="50" y="-1.4473684210526314" stroke="none" fill="hsla(0, 0%, 0%, 1.00)" rx="1.4473684210526314"></rect><rect width="2.894736842105263" height="33.333333333333336" x="65.21929824561404" y="-16.666666666666668" stroke="none" fill="hsla(0, 0%, 0%, 1.00)" rx="1.4473684210526314"></rect><rect width="33.333333333333336" height="2.894736842105263" x="116.66666666666667" y="-1.4473684210526314" stroke="none" fill="hsla(0, 0%, 0%, 1.00)" rx="1.4473684210526314"></rect><rect width="2.894736842105263" height="33.333333333333336" x="131.8859649122807" y="-16.666666666666668" stroke="none" fill="hsla(0, 0%, 0%, 1.00)" rx="1.4473684210526314"></rect><rect width="33.333333333333336" height="2.894736842105263" x="183.33333333333334" y="-1.4473684210526314" stroke="none" fill="hsla(0, 0%, 0%, 1.00)" rx="1.4473684210526314"></rect><rect width="2.894736842105263" height="33.333333333333336" x="198.55263157894737" y="-16.666666666666668" stroke="none" fill="hsla(0, 0%, 0%, 1.00)" rx="1.4473684210526314"></rect><rect width="33.333333333333336" height="2.894736842105263" x="250.00000000000003" y="-1.4473684210526314" stroke="none" fill="hsla(0, 0%, 0%, 1.00)" rx="1.4473684210526314"></rect><rect width="2.894736842105263" height="33.333333333333336" x="265.219298245614" y="-16.666666666666668" stroke="none" fill="hsla(0, 0%, 0%, 1.00)" rx="1.4473684210526314"></rect><rect width="33.333333333333336" height="2.894736842105263" x="316.6666666666667" y="-1.4473684210526314" stroke="none" fill="hsla(0, 0%, 0%, 1.00)" rx="1.4473684210526314"></rect><rect width="2.894736842105263" height="33.333333333333336" x="331.8859649122807" y="-16.666666666666668" stroke="none" fill="hsla(0, 0%, 0%, 1.00)" rx="1.4473684210526314"></rect><rect width="33.333333333333336" height="2.894736842105263" x="383.33333333333337" y="-1.4473684210526314" stroke="none" fill="hsla(0, 0%, 0%, 1.00)" rx="1.4473684210526314"></rect><rect width="2.894736842105263" height="33.333333333333336" x="398.5526315789474" y="-16.666666666666668" stroke="none" fill="hsla(0, 0%, 0%, 1.00)" rx="1.4473684210526314"></rect><rect width="33.333333333333336" height="2.894736842105263" x="450.00000000000006" y="-1.4473684210526314" stroke="none" fill="hsla(0, 0%, 0%, 1.00)" rx="1.4473684210526314"></rect><rect width="2.894736842105263" height="33.333333333333336" x="465.2192982456141" y="-16.666666666666668" stroke="none" fill="hsla(0, 0%, 0%, 1.00)" rx="1.4473684210526314"></rect><rect width="33.333333333333336" height="2.894736842105263" x="516.6666666666667" y="-1.4473684210526314" stroke="none" fill="hsla(0, 0%, 0%, 1.00)" rx="1.4473684210526314"></rect><rect width="2.894736842105263" height="33.333333333333336" x="531.8859649122808" y="-16.666666666666668" stroke="none" fill="hsla(0, 0%, 0%, 1.00)" rx="1.4473684210526314"></rect><rect width="33.333333333333336" height="2.894736842105263" x="583.3333333333334" y="-1.4473684210526314" stroke="none" fill="hsla(0, 0%, 0%, 1.00)" rx="1.4473684210526314"></rect><rect width="2.894736842105263" height="33.333333333333336" x="598.5526315789474" y="-16.666666666666668" stroke="none" fill="hsla(0, 0%, 0%, 1.00)" rx="1.4473684210526314"></rect><rect width="33.333333333333336" height="2.894736842105263" x="650" y="-1.4473684210526314" stroke="none" fill="hsla(0, 0%, 0%, 1.00)" rx="1.4473684210526314"></rect><rect width="2.894736842105263" height="33.333333333333336" x="665.219298245614" y="-16.666666666666668" stroke="none" fill="hsla(0, 0%, 0%, 1.00)" rx="1.4473684210526314"></rect><rect width="33.333333333333336" height="2.894736842105263" x="716.6666666666666" y="-1.4473684210526314" stroke="none" fill="hsla(0, 0%, 0%, 1.00)" rx="1.4473684210526314"></rect><rect width="2.894736842105263" height="33.333333333333336" x="731.8859649122807" y="-16.666666666666668" stroke="none" fill="hsla(0, 0%, 0%, 1.00)" rx="1.4473684210526314"></rect><rect width="33.333333333333336" height="2.894736842105263" x="783.3333333333333" y="-1.4473684210526314" stroke="none" fill="hsla(0, 0%, 0%, 1.00)" rx="1.4473684210526314"></rect><rect width="2.894736842105263" height="33.333333333333336" x="798.5526315789473" y="-16.666666666666668" stroke="none" fill="hsla(0, 0%, 0%, 1.00)" rx="1.4473684210526314"></rect><rect width="33.333333333333336" height="2.894736842105263" x="-16.666666666666668" y="65.21929824561404" stroke="none" fill="hsla(0, 0%, 0%, 1.00)" rx="1.4473684210526314"></rect><rect width="2.894736842105263" height="33.333333333333336" x="-1.4473684210526314" y="50" stroke="none" fill="hsla(0, 0%, 0%, 1.00)" rx="1.4473684210526314"></rect><rect width="33.333333333333336" height="2.894736842105263" x="50" y="65.21929824561404" stroke="none" fill="hsla(0, 0%, 0%, 1.00)" rx="1.4473684210526314"></rect><rect width="2.894736842105263" height="33.333333333333336" x="65.21929824561404" y="50" stroke="none" fill="hsla(0, 0%, 0%, 1.00)" rx="1.4473684210526314"></rect><rect width="33.333333333333336" height="2.894736842105263" x="116.66666666666667" y="65.21929824561404" stroke="none" fill="hsla(0, 0%, 0%, 1.00)" rx="1.4473684210526314"></rect><rect width="2.894736842105263" height="33.333333333333336" x="131.8859649122807" y="50" stroke="none" fill="hsla(0, 0%, 0%, 1.00)" rx="1.4473684210526314"></rect><rect width="33.333333333333336" height="2.894736842105263" x="183.33333333333334" y="65.21929824561404" stroke="none" fill="hsla(0, 0%, 0%, 1.00)" rx="1.4473684210526314"></rect><rect width="2.894736842105263" height="33.333333333333336" x="198.55263157894737" y="50" stroke="none" fill="hsla(0, 0%, 0%, 1.00)" rx="1.4473684210526314"></rect><rect width="33.333333333333336" height="2.894736842105263" x="250.00000000000003" y="65.21929824561404" stroke="none" fill="hsla(0, 0%, 0%, 1.00)" rx="1.4473684210526314"></rect><rect width="2.894736842105263" height="33.333333333333336" x="265.219298245614" y="50" stroke="none" fill="hsla(0, 0%, 0%, 1.00)" rx="1.4473684210526314"></rect><rect width="33.333333333333336" height="2.894736842105263" x="316.6666666666667" y="65.21929824561404" stroke="none" fill="hsla(0, 0%, 0%, 1.00)" rx="1.4473684210526314"></rect><rect width="2.894736842105263" height="33.333333333333336" x="331.8859649122807" y="50" stroke="none" fill="hsla(0, 0%, 0%, 1.00)" rx="1.4473684210526314"></rect><rect width="33.333333333333336" height="2.894736842105263" x="383.33333333333337" y="65.21929824561404" stroke="none" fill="hsla(0, 0%, 0%, 1.00)" rx="1.4473684210526314"></rect><rect width="2.894736842105263" height="33.333333333333336" x="398.5526315789474" y="50" stroke="none" fill="hsla(0, 0%, 0%, 1.00)" rx="1.4473684210526314"></rect><rect width="33.333333333333336" height="2.894736842105263" x="450.00000000000006" y="65.21929824561404" stroke="none" fill="hsla(0, 0%, 0%, 1.00)" rx="1.4473684210526314"></rect><rect width="2.894736842105263" height="33.333333333333336" x="465.2192982456141" y="50" stroke="none" fill="hsla(0, 0%, 0%, 1.00)" rx="1.4473684210526314"></rect><rect width="33.333333333333336" height="2.894736842105263" x="516.6666666666667" y="65.21929824561404" stroke="none" fill="hsla(0, 0%, 0%, 1.00)" rx="1.4473684210526314"></rect><rect width="2.894736842105263" height="33.333333333333336" x="531.8859649122808" y="50" stroke="none" fill="hsla(0, 0%, 0%, 1.00)" rx="1.4473684210526314"></rect><rect width="33.333333333333336" height="2.894736842105263" x="583.3333333333334" y="65.21929824561404" stroke="none" fill="hsla(0, 0%, 0%, 1.00)" rx="1.4473684210526314"></rect><rect width="2.894736842105263" height="33.333333333333336" x="598.5526315789474" y="50" stroke="none" fill="hsla(0, 0%, 0%, 1.00)" rx="1.4473684210526314"></rect><rect width="33.333333333333336" height="2.894736842105263" x="650" y="65.21929824561404" stroke="none" fill="hsla(0, 0%, 0%, 1.00)" rx="1.4473684210526314"></rect><rect width="2.894736842105263" height="33.333333333333336" x="665.219298245614" y="50" stroke="none" fill="hsla(0, 0%, 0%, 1.00)" rx="1.4473684210526314"></rect><rect width="33.333333333333336" height="2.894736842105263" x="716.6666666666666" y="65.21929824561404" stroke="none" fill="hsla(0, 0%, 0%, 1.00)" rx="1.4473684210526314"></rect><rect width="2.894736842105263" height="33.333333333333336" x="731.8859649122807" y="50" stroke="none" fill="hsla(0, 0%, 0%, 1.00)" rx="1.4473684210526314"></rect><rect width="33.333333333333336" height="2.894736842105263" x="783.3333333333333" y="65.21929824561404" stroke="none" fill="hsla(0, 0%, 0%, 1.00)" rx="1.4473684210526314"></rect><rect width="2.894736842105263" height="33.333333333333336" x="798.5526315789473" y="50" stroke="none" fill="hsla(0, 0%, 0%, 1.00)" rx="1.4473684210526314"></rect><rect width="33.333333333333336" height="2.894736842105263" x="-16.666666666666668" y="131.8859649122807" stroke="none" fill="hsla(0, 0%, 0%, 1.00)" rx="1.4473684210526314"></rect><rect width="2.894736842105263" height="33.333333333333336" x="-1.4473684210526314" y="116.66666666666667" stroke="none" fill="hsla(0, 0%, 0%, 1.00)" rx="1.4473684210526314"></rect><rect width="33.333333333333336" height="2.894736842105263" x="50" y="131.8859649122807" stroke="none" fill="hsla(0, 0%, 0%, 1.00)" rx="1.4473684210526314"></rect><rect width="2.894736842105263" height="33.333333333333336" x="65.21929824561404" y="116.66666666666667" stroke="none" fill="hsla(0, 0%, 0%, 1.00)" rx="1.4473684210526314"></rect><rect width="33.333333333333336" height="2.894736842105263" x="116.66666666666667" y="131.8859649122807" stroke="none" fill="hsla(0, 0%, 0%, 1.00)" rx="1.4473684210526314"></rect><rect width="2.894736842105263" height="33.333333333333336" x="131.8859649122807" y="116.66666666666667" stroke="none" fill="hsla(0, 0%, 0%, 1.00)" rx="1.4473684210526314"></rect><rect width="33.333333333333336" height="2.894736842105263" x="183.33333333333334" y="131.8859649122807" stroke="none" fill="hsla(0, 0%, 0%, 1.00)" rx="1.4473684210526314"></rect><rect width="2.894736842105263" height="33.333333333333336" x="198.55263157894737" y="116.66666666666667" stroke="none" fill="hsla(0, 0%, 0%, 1.00)" rx="1.4473684210526314"></rect><rect width="33.333333333333336" height="2.894736842105263" x="250.00000000000003" y="131.8859649122807" stroke="none" fill="hsla(0, 0%, 0%, 1.00)" rx="1.4473684210526314"></rect><rect width="2.894736842105263" height="33.333333333333336" x="265.219298245614" y="116.66666666666667" stroke="none" fill="hsla(0, 0%, 0%, 1.00)" rx="1.4473684210526314"></rect><rect width="33.333333333333336" height="2.894736842105263" x="316.6666666666667" y="131.8859649122807" stroke="none" fill="hsla(0, 0%, 0%, 1.00)" rx="1.4473684210526314"></rect><rect width="2.894736842105263" height="33.333333333333336" x="331.8859649122807" y="116.66666666666667" stroke="none" fill="hsla(0, 0%, 0%, 1.00)" rx="1.4473684210526314"></rect><rect width="33.333333333333336" height="2.894736842105263" x="383.33333333333337" y="131.8859649122807" stroke="none" fill="hsla(0, 0%, 0%, 1.00)" rx="1.4473684210526314"></rect><rect width="2.894736842105263" height="33.333333333333336" x="398.5526315789474" y="116.66666666666667" stroke="none" fill="hsla(0, 0%, 0%, 1.00)" rx="1.4473684210526314"></rect><rect width="33.333333333333336" height="2.894736842105263" x="450.00000000000006" y="131.8859649122807" stroke="none" fill="hsla(0, 0%, 0%, 1.00)" rx="1.4473684210526314"></rect><rect width="2.894736842105263" height="33.333333333333336" x="465.2192982456141" y="116.66666666666667" stroke="none" fill="hsla(0, 0%, 0%, 1.00)" rx="1.4473684210526314"></rect><rect width="33.333333333333336" height="2.894736842105263" x="516.6666666666667" y="131.8859649122807" stroke="none" fill="hsla(0, 0%, 0%, 1.00)" rx="1.4473684210526314"></rect><rect width="2.894736842105263" height="33.333333333333336" x="531.8859649122808" y="116.66666666666667" stroke="none" fill="hsla(0, 0%, 0%, 1.00)" rx="1.4473684210526314"></rect><rect width="33.333333333333336" height="2.894736842105263" x="583.3333333333334" y="131.8859649122807" stroke="none" fill="hsla(0, 0%, 0%, 1.00)" rx="1.4473684210526314"></rect><rect width="2.894736842105263" height="33.333333333333336" x="598.5526315789474" y="116.66666666666667" stroke="none" fill="hsla(0, 0%, 0%, 1.00)" rx="1.4473684210526314"></rect><rect width="33.333333333333336" height="2.894736842105263" x="650" y="131.8859649122807" stroke="none" fill="hsla(0, 0%, 0%, 1.00)" rx="1.4473684210526314"></rect><rect width="2.894736842105263" height="33.333333333333336" x="665.219298245614" y="116.66666666666667" stroke="none" fill="hsla(0, 0%, 0%, 1.00)" rx="1.4473684210526314"></rect><rect width="33.333333333333336" height="2.894736842105263" x="716.6666666666666" y="131.8859649122807" stroke="none" fill="hsla(0, 0%, 0%, 1.00)" rx="1.4473684210526314"></rect><rect width="2.894736842105263" height="33.333333333333336" x="731.8859649122807" y="116.66666666666667" stroke="none" fill="hsla(0, 0%, 0%, 1.00)" rx="1.4473684210526314"></rect><rect width="33.333333333333336" height="2.894736842105263" x="783.3333333333333" y="131.8859649122807" stroke="none" fill="hsla(0, 0%, 0%, 1.00)" rx="1.4473684210526314"></rect><rect width="2.894736842105263" height="33.333333333333336" x="798.5526315789473" y="116.66666666666667" stroke="none" fill="hsla(0, 0%, 0%, 1.00)" rx="1.4473684210526314"></rect><rect width="33.333333333333336" height="2.894736842105263" x="-16.666666666666668" y="198.55263157894737" stroke="none" fill="hsla(0, 0%, 0%, 1.00)" rx="1.4473684210526314"></rect><rect width="2.894736842105263" height="33.333333333333336" x="-1.4473684210526314" y="183.33333333333334" stroke="none" fill="hsla(0, 0%, 0%, 1.00)" rx="1.4473684210526314"></rect><rect width="33.333333333333336" height="2.894736842105263" x="50" y="198.55263157894737" stroke="none" fill="hsla(0, 0%, 0%, 1.00)" rx="1.4473684210526314"></rect><rect width="2.894736842105263" height="33.333333333333336" x="65.21929824561404" y="183.33333333333334" stroke="none" fill="hsla(0, 0%, 0%, 1.00)" rx="1.4473684210526314"></rect><rect width="33.333333333333336" height="2.894736842105263" x="116.66666666666667" y="198.55263157894737" stroke="none" fill="hsla(0, 0%, 0%, 1.00)" rx="1.4473684210526314"></rect><rect width="2.894736842105263" height="33.333333333333336" x="131.8859649122807" y="183.33333333333334" stroke="none" fill="hsla(0, 0%, 0%, 1.00)" rx="1.4473684210526314"></rect><rect width="33.333333333333336" height="2.894736842105263" x="183.33333333333334" y="198.55263157894737" stroke="none" fill="hsla(0, 0%, 0%, 1.00)" rx="1.4473684210526314"></rect><rect width="2.894736842105263" height="33.333333333333336" x="198.55263157894737" y="183.33333333333334" stroke="none" fill="hsla(0, 0%, 0%, 1.00)" rx="1.4473684210526314"></rect><rect width="33.333333333333336" height="2.894736842105263" x="250.00000000000003" y="198.55263157894737" stroke="none" fill="hsla(0, 0%, 0%, 1.00)" rx="1.4473684210526314"></rect><rect width="2.894736842105263" height="33.333333333333336" x="265.219298245614" y="183.33333333333334" stroke="none" fill="hsla(0, 0%, 0%, 1.00)" rx="1.4473684210526314"></rect><rect width="33.333333333333336" height="2.894736842105263" x="316.6666666666667" y="198.55263157894737" stroke="none" fill="hsla(0, 0%, 0%, 1.00)" rx="1.4473684210526314"></rect><rect width="2.894736842105263" height="33.333333333333336" x="331.8859649122807" y="183.33333333333334" stroke="none" fill="hsla(0, 0%, 0%, 1.00)" rx="1.4473684210526314"></rect><rect width="33.333333333333336" height="2.894736842105263" x="383.33333333333337" y="198.55263157894737" stroke="none" fill="hsla(0, 0%, 0%, 1.00)" rx="1.4473684210526314"></rect><rect width="2.894736842105263" height="33.333333333333336" x="398.5526315789474" y="183.33333333333334" stroke="none" fill="hsla(0, 0%, 0%, 1.00)" rx="1.4473684210526314"></rect><rect width="33.333333333333336" height="2.894736842105263" x="450.00000000000006" y="198.55263157894737" stroke="none" fill="hsla(0, 0%, 0%, 1.00)" rx="1.4473684210526314"></rect><rect width="2.894736842105263" height="33.333333333333336" x="465.2192982456141" y="183.33333333333334" stroke="none" fill="hsla(0, 0%, 0%, 1.00)" rx="1.4473684210526314"></rect><rect width="33.333333333333336" height="2.894736842105263" x="516.6666666666667" y="198.55263157894737" stroke="none" fill="hsla(0, 0%, 0%, 1.00)" rx="1.4473684210526314"></rect><rect width="2.894736842105263" height="33.333333333333336" x="531.8859649122808" y="183.33333333333334" stroke="none" fill="hsla(0, 0%, 0%, 1.00)" rx="1.4473684210526314"></rect><rect width="33.333333333333336" height="2.894736842105263" x="583.3333333333334" y="198.55263157894737" stroke="none" fill="hsla(0, 0%, 0%, 1.00)" rx="1.4473684210526314"></rect><rect width="2.894736842105263" height="33.333333333333336" x="598.5526315789474" y="183.33333333333334" stroke="none" fill="hsla(0, 0%, 0%, 1.00)" rx="1.4473684210526314"></rect><rect width="33.333333333333336" height="2.894736842105263" x="650" y="198.55263157894737" stroke="none" fill="hsla(0, 0%, 0%, 1.00)" rx="1.4473684210526314"></rect><rect width="2.894736842105263" height="33.333333333333336" x="665.219298245614" y="183.33333333333334" stroke="none" fill="hsla(0, 0%, 0%, 1.00)" rx="1.4473684210526314"></rect><rect width="33.333333333333336" height="2.894736842105263" x="716.6666666666666" y="198.55263157894737" stroke="none" fill="hsla(0, 0%, 0%, 1.00)" rx="1.4473684210526314"></rect><rect width="2.894736842105263" height="33.333333333333336" x="731.8859649122807" y="183.33333333333334" stroke="none" fill="hsla(0, 0%, 0%, 1.00)" rx="1.4473684210526314"></rect><rect width="33.333333333333336" height="2.894736842105263" x="783.3333333333333" y="198.55263157894737" stroke="none" fill="hsla(0, 0%, 0%, 1.00)" rx="1.4473684210526314"></rect><rect width="2.894736842105263" height="33.333333333333336" x="798.5526315789473" y="183.33333333333334" stroke="none" fill="hsla(0, 0%, 0%, 1.00)" rx="1.4473684210526314"></rect><rect width="33.333333333333336" height="2.894736842105263" x="-16.666666666666668" y="265.219298245614" stroke="none" fill="hsla(0, 0%, 0%, 1.00)" rx="1.4473684210526314"></rect><rect width="2.894736842105263" height="33.333333333333336" x="-1.4473684210526314" y="250.00000000000003" stroke="none" fill="hsla(0, 0%, 0%, 1.00)" rx="1.4473684210526314"></rect><rect width="33.333333333333336" height="2.894736842105263" x="50" y="265.219298245614" stroke="none" fill="hsla(0, 0%, 0%, 1.00)" rx="1.4473684210526314"></rect><rect width="2.894736842105263" height="33.333333333333336" x="65.21929824561404" y="250.00000000000003" stroke="none" fill="hsla(0, 0%, 0%, 1.00)" rx="1.4473684210526314"></rect><rect width="33.333333333333336" height="2.894736842105263" x="116.66666666666667" y="265.219298245614" stroke="none" fill="hsla(0, 0%, 0%, 1.00)" rx="1.4473684210526314"></rect><rect width="2.894736842105263" height="33.333333333333336" x="131.8859649122807" y="250.00000000000003" stroke="none" fill="hsla(0, 0%, 0%, 1.00)" rx="1.4473684210526314"></rect><rect width="33.333333333333336" height="2.894736842105263" x="183.33333333333334" y="265.219298245614" stroke="none" fill="hsla(0, 0%, 0%, 1.00)" rx="1.4473684210526314"></rect><rect width="2.894736842105263" height="33.333333333333336" x="198.55263157894737" y="250.00000000000003" stroke="none" fill="hsla(0, 0%, 0%, 1.00)" rx="1.4473684210526314"></rect><rect width="33.333333333333336" height="2.894736842105263" x="250.00000000000003" y="265.219298245614" stroke="none" fill="hsla(0, 0%, 0%, 1.00)" rx="1.4473684210526314"></rect><rect width="2.894736842105263" height="33.333333333333336" x="265.219298245614" y="250.00000000000003" stroke="none" fill="hsla(0, 0%, 0%, 1.00)" rx="1.4473684210526314"></rect><rect width="33.333333333333336" height="2.894736842105263" x="316.6666666666667" y="265.219298245614" stroke="none" fill="hsla(0, 0%, 0%, 1.00)" rx="1.4473684210526314"></rect><rect width="2.894736842105263" height="33.333333333333336" x="331.8859649122807" y="250.00000000000003" stroke="none" fill="hsla(0, 0%, 0%, 1.00)" rx="1.4473684210526314"></rect><rect width="33.333333333333336" height="2.894736842105263" x="383.33333333333337" y="265.219298245614" stroke="none" fill="hsla(0, 0%, 0%, 1.00)" rx="1.4473684210526314"></rect><rect width="2.894736842105263" height="33.333333333333336" x="398.5526315789474" y="250.00000000000003" stroke="none" fill="hsla(0, 0%, 0%, 1.00)" rx="1.4473684210526314"></rect><rect width="33.333333333333336" height="2.894736842105263" x="450.00000000000006" y="265.219298245614" stroke="none" fill="hsla(0, 0%, 0%, 1.00)" rx="1.4473684210526314"></rect><rect width="2.894736842105263" height="33.333333333333336" x="465.2192982456141" y="250.00000000000003" stroke="none" fill="hsla(0, 0%, 0%, 1.00)" rx="1.4473684210526314"></rect><rect width="33.333333333333336" height="2.894736842105263" x="516.6666666666667" y="265.219298245614" stroke="none" fill="hsla(0, 0%, 0%, 1.00)" rx="1.4473684210526314"></rect><rect width="2.894736842105263" height="33.333333333333336" x="531.8859649122808" y="250.00000000000003" stroke="none" fill="hsla(0, 0%, 0%, 1.00)" rx="1.4473684210526314"></rect><rect width="33.333333333333336" height="2.894736842105263" x="583.3333333333334" y="265.219298245614" stroke="none" fill="hsla(0, 0%, 0%, 1.00)" rx="1.4473684210526314"></rect><rect width="2.894736842105263" height="33.333333333333336" x="598.5526315789474" y="250.00000000000003" stroke="none" fill="hsla(0, 0%, 0%, 1.00)" rx="1.4473684210526314"></rect><rect width="33.333333333333336" height="2.894736842105263" x="650" y="265.219298245614" stroke="none" fill="hsla(0, 0%, 0%, 1.00)" rx="1.4473684210526314"></rect><rect width="2.894736842105263" height="33.333333333333336" x="665.219298245614" y="250.00000000000003" stroke="none" fill="hsla(0, 0%, 0%, 1.00)" rx="1.4473684210526314"></rect><rect width="33.333333333333336" height="2.894736842105263" x="716.6666666666666" y="265.219298245614" stroke="none" fill="hsla(0, 0%, 0%, 1.00)" rx="1.4473684210526314"></rect><rect width="2.894736842105263" height="33.333333333333336" x="731.8859649122807" y="250.00000000000003" stroke="none" fill="hsla(0, 0%, 0%, 1.00)" rx="1.4473684210526314"></rect><rect width="33.333333333333336" height="2.894736842105263" x="783.3333333333333" y="265.219298245614" stroke="none" fill="hsla(0, 0%, 0%, 1.00)" rx="1.4473684210526314"></rect><rect width="2.894736842105263" height="33.333333333333336" x="798.5526315789473" y="250.00000000000003" stroke="none" fill="hsla(0, 0%, 0%, 1.00)" rx="1.4473684210526314"></rect><rect width="33.333333333333336" height="2.894736842105263" x="-16.666666666666668" y="331.8859649122807" stroke="none" fill="hsla(0, 0%, 0%, 1.00)" rx="1.4473684210526314"></rect><rect width="2.894736842105263" height="33.333333333333336" x="-1.4473684210526314" y="316.6666666666667" stroke="none" fill="hsla(0, 0%, 0%, 1.00)" rx="1.4473684210526314"></rect><rect width="33.333333333333336" height="2.894736842105263" x="50" y="331.8859649122807" stroke="none" fill="hsla(0, 0%, 0%, 1.00)" rx="1.4473684210526314"></rect><rect width="2.894736842105263" height="33.333333333333336" x="65.21929824561404" y="316.6666666666667" stroke="none" fill="hsla(0, 0%, 0%, 1.00)" rx="1.4473684210526314"></rect><rect width="33.333333333333336" height="2.894736842105263" x="116.66666666666667" y="331.8859649122807" stroke="none" fill="hsla(0, 0%, 0%, 1.00)" rx="1.4473684210526314"></rect><rect width="2.894736842105263" height="33.333333333333336" x="131.8859649122807" y="316.6666666666667" stroke="none" fill="hsla(0, 0%, 0%, 1.00)" rx="1.4473684210526314"></rect><rect width="33.333333333333336" height="2.894736842105263" x="183.33333333333334" y="331.8859649122807" stroke="none" fill="hsla(0, 0%, 0%, 1.00)" rx="1.4473684210526314"></rect><rect width="2.894736842105263" height="33.333333333333336" x="198.55263157894737" y="316.6666666666667" stroke="none" fill="hsla(0, 0%, 0%, 1.00)" rx="1.4473684210526314"></rect><rect width="33.333333333333336" height="2.894736842105263" x="250.00000000000003" y="331.8859649122807" stroke="none" fill="hsla(0, 0%, 0%, 1.00)" rx="1.4473684210526314"></rect><rect width="2.894736842105263" height="33.333333333333336" x="265.219298245614" y="316.6666666666667" stroke="none" fill="hsla(0, 0%, 0%, 1.00)" rx="1.4473684210526314"></rect><rect width="33.333333333333336" height="2.894736842105263" x="316.6666666666667" y="331.8859649122807" stroke="none" fill="hsla(0, 0%, 0%, 1.00)" rx="1.4473684210526314"></rect><rect width="2.894736842105263" height="33.333333333333336" x="331.8859649122807" y="316.6666666666667" stroke="none" fill="hsla(0, 0%, 0%, 1.00)" rx="1.4473684210526314"></rect><rect width="33.333333333333336" height="2.894736842105263" x="383.33333333333337" y="331.8859649122807" stroke="none" fill="hsla(0, 0%, 0%, 1.00)" rx="1.4473684210526314"></rect><rect width="2.894736842105263" height="33.333333333333336" x="398.5526315789474" y="316.6666666666667" stroke="none" fill="hsla(0, 0%, 0%, 1.00)" rx="1.4473684210526314"></rect><rect width="33.333333333333336" height="2.894736842105263" x="450.00000000000006" y="331.8859649122807" stroke="none" fill="hsla(0, 0%, 0%, 1.00)" rx="1.4473684210526314"></rect><rect width="2.894736842105263" height="33.333333333333336" x="465.2192982456141" y="316.6666666666667" stroke="none" fill="hsla(0, 0%, 0%, 1.00)" rx="1.4473684210526314"></rect><rect width="33.333333333333336" height="2.894736842105263" x="516.6666666666667" y="331.8859649122807" stroke="none" fill="hsla(0, 0%, 0%, 1.00)" rx="1.4473684210526314"></rect><rect width="2.894736842105263" height="33.333333333333336" x="531.8859649122808" y="316.6666666666667" stroke="none" fill="hsla(0, 0%, 0%, 1.00)" rx="1.4473684210526314"></rect><rect width="33.333333333333336" height="2.894736842105263" x="583.3333333333334" y="331.8859649122807" stroke="none" fill="hsla(0, 0%, 0%, 1.00)" rx="1.4473684210526314"></rect><rect width="2.894736842105263" height="33.333333333333336" x="598.5526315789474" y="316.6666666666667" stroke="none" fill="hsla(0, 0%, 0%, 1.00)" rx="1.4473684210526314"></rect><rect width="33.333333333333336" height="2.894736842105263" x="650" y="331.8859649122807" stroke="none" fill="hsla(0, 0%, 0%, 1.00)" rx="1.4473684210526314"></rect><rect width="2.894736842105263" height="33.333333333333336" x="665.219298245614" y="316.6666666666667" stroke="none" fill="hsla(0, 0%, 0%, 1.00)" rx="1.4473684210526314"></rect><rect width="33.333333333333336" height="2.894736842105263" x="716.6666666666666" y="331.8859649122807" stroke="none" fill="hsla(0, 0%, 0%, 1.00)" rx="1.4473684210526314"></rect><rect width="2.894736842105263" height="33.333333333333336" x="731.8859649122807" y="316.6666666666667" stroke="none" fill="hsla(0, 0%, 0%, 1.00)" rx="1.4473684210526314"></rect><rect width="33.333333333333336" height="2.894736842105263" x="783.3333333333333" y="331.8859649122807" stroke="none" fill="hsla(0, 0%, 0%, 1.00)" rx="1.4473684210526314"></rect><rect width="2.894736842105263" height="33.333333333333336" x="798.5526315789473" y="316.6666666666667" stroke="none" fill="hsla(0, 0%, 0%, 1.00)" rx="1.4473684210526314"></rect><rect width="33.333333333333336" height="2.894736842105263" x="-16.666666666666668" y="398.5526315789474" stroke="none" fill="hsla(0, 0%, 0%, 1.00)" rx="1.4473684210526314"></rect><rect width="2.894736842105263" height="33.333333333333336" x="-1.4473684210526314" y="383.33333333333337" stroke="none" fill="hsla(0, 0%, 0%, 1.00)" rx="1.4473684210526314"></rect><rect width="33.333333333333336" height="2.894736842105263" x="50" y="398.5526315789474" stroke="none" fill="hsla(0, 0%, 0%, 1.00)" rx="1.4473684210526314"></rect><rect width="2.894736842105263" height="33.333333333333336" x="65.21929824561404" y="383.33333333333337" stroke="none" fill="hsla(0, 0%, 0%, 1.00)" rx="1.4473684210526314"></rect><rect width="33.333333333333336" height="2.894736842105263" x="116.66666666666667" y="398.5526315789474" stroke="none" fill="hsla(0, 0%, 0%, 1.00)" rx="1.4473684210526314"></rect><rect width="2.894736842105263" height="33.333333333333336" x="131.8859649122807" y="383.33333333333337" stroke="none" fill="hsla(0, 0%, 0%, 1.00)" rx="1.4473684210526314"></rect><rect width="33.333333333333336" height="2.894736842105263" x="183.33333333333334" y="398.5526315789474" stroke="none" fill="hsla(0, 0%, 0%, 1.00)" rx="1.4473684210526314"></rect><rect width="2.894736842105263" height="33.333333333333336" x="198.55263157894737" y="383.33333333333337" stroke="none" fill="hsla(0, 0%, 0%, 1.00)" rx="1.4473684210526314"></rect><rect width="33.333333333333336" height="2.894736842105263" x="250.00000000000003" y="398.5526315789474" stroke="none" fill="hsla(0, 0%, 0%, 1.00)" rx="1.4473684210526314"></rect><rect width="2.894736842105263" height="33.333333333333336" x="265.219298245614" y="383.33333333333337" stroke="none" fill="hsla(0, 0%, 0%, 1.00)" rx="1.4473684210526314"></rect><rect width="33.333333333333336" height="2.894736842105263" x="316.6666666666667" y="398.5526315789474" stroke="none" fill="hsla(0, 0%, 0%, 1.00)" rx="1.4473684210526314"></rect><rect width="2.894736842105263" height="33.333333333333336" x="331.8859649122807" y="383.33333333333337" stroke="none" fill="hsla(0, 0%, 0%, 1.00)" rx="1.4473684210526314"></rect><rect width="33.333333333333336" height="2.894736842105263" x="383.33333333333337" y="398.5526315789474" stroke="none" fill="hsla(0, 0%, 0%, 1.00)" rx="1.4473684210526314"></rect><rect width="2.894736842105263" height="33.333333333333336" x="398.5526315789474" y="383.33333333333337" stroke="none" fill="hsla(0, 0%, 0%, 1.00)" rx="1.4473684210526314"></rect><rect width="33.333333333333336" height="2.894736842105263" x="450.00000000000006" y="398.5526315789474" stroke="none" fill="hsla(0, 0%, 0%, 1.00)" rx="1.4473684210526314"></rect><rect width="2.894736842105263" height="33.333333333333336" x="465.2192982456141" y="383.33333333333337" stroke="none" fill="hsla(0, 0%, 0%, 1.00)" rx="1.4473684210526314"></rect><rect width="33.333333333333336" height="2.894736842105263" x="516.6666666666667" y="398.5526315789474" stroke="none" fill="hsla(0, 0%, 0%, 1.00)" rx="1.4473684210526314"></rect><rect width="2.894736842105263" height="33.333333333333336" x="531.8859649122808" y="383.33333333333337" stroke="none" fill="hsla(0, 0%, 0%, 1.00)" rx="1.4473684210526314"></rect><rect width="33.333333333333336" height="2.894736842105263" x="583.3333333333334" y="398.5526315789474" stroke="none" fill="hsla(0, 0%, 0%, 1.00)" rx="1.4473684210526314"></rect><rect width="2.894736842105263" height="33.333333333333336" x="598.5526315789474" y="383.33333333333337" stroke="none" fill="hsla(0, 0%, 0%, 1.00)" rx="1.4473684210526314"></rect><rect width="33.333333333333336" height="2.894736842105263" x="650" y="398.5526315789474" stroke="none" fill="hsla(0, 0%, 0%, 1.00)" rx="1.4473684210526314"></rect><rect width="2.894736842105263" height="33.333333333333336" x="665.219298245614" y="383.33333333333337" stroke="none" fill="hsla(0, 0%, 0%, 1.00)" rx="1.4473684210526314"></rect><rect width="33.333333333333336" height="2.894736842105263" x="716.6666666666666" y="398.5526315789474" stroke="none" fill="hsla(0, 0%, 0%, 1.00)" rx="1.4473684210526314"></rect><rect width="2.894736842105263" height="33.333333333333336" x="731.8859649122807" y="383.33333333333337" stroke="none" fill="hsla(0, 0%, 0%, 1.00)" rx="1.4473684210526314"></rect><rect width="33.333333333333336" height="2.894736842105263" x="783.3333333333333" y="398.5526315789474" stroke="none" fill="hsla(0, 0%, 0%, 1.00)" rx="1.4473684210526314"></rect><rect width="2.894736842105263" height="33.333333333333336" x="798.5526315789473" y="383.33333333333337" stroke="none" fill="hsla(0, 0%, 0%, 1.00)" rx="1.4473684210526314"></rect><rect width="33.333333333333336" height="2.894736842105263" x="-16.666666666666668" y="465.2192982456141" stroke="none" fill="hsla(0, 0%, 0%, 1.00)" rx="1.4473684210526314"></rect><rect width="2.894736842105263" height="33.333333333333336" x="-1.4473684210526314" y="450.00000000000006" stroke="none" fill="hsla(0, 0%, 0%, 1.00)" rx="1.4473684210526314"></rect><rect width="33.333333333333336" height="2.894736842105263" x="50" y="465.2192982456141" stroke="none" fill="hsla(0, 0%, 0%, 1.00)" rx="1.4473684210526314"></rect><rect width="2.894736842105263" height="33.333333333333336" x="65.21929824561404" y="450.00000000000006" stroke="none" fill="hsla(0, 0%, 0%, 1.00)" rx="1.4473684210526314"></rect><rect width="33.333333333333336" height="2.894736842105263" x="116.66666666666667" y="465.2192982456141" stroke="none" fill="hsla(0, 0%, 0%, 1.00)" rx="1.4473684210526314"></rect><rect width="2.894736842105263" height="33.333333333333336" x="131.8859649122807" y="450.00000000000006" stroke="none" fill="hsla(0, 0%, 0%, 1.00)" rx="1.4473684210526314"></rect><rect width="33.333333333333336" height="2.894736842105263" x="183.33333333333334" y="465.2192982456141" stroke="none" fill="hsla(0, 0%, 0%, 1.00)" rx="1.4473684210526314"></rect><rect width="2.894736842105263" height="33.333333333333336" x="198.55263157894737" y="450.00000000000006" stroke="none" fill="hsla(0, 0%, 0%, 1.00)" rx="1.4473684210526314"></rect><rect width="33.333333333333336" height="2.894736842105263" x="250.00000000000003" y="465.2192982456141" stroke="none" fill="hsla(0, 0%, 0%, 1.00)" rx="1.4473684210526314"></rect><rect width="2.894736842105263" height="33.333333333333336" x="265.219298245614" y="450.00000000000006" stroke="none" fill="hsla(0, 0%, 0%, 1.00)" rx="1.4473684210526314"></rect><rect width="33.333333333333336" height="2.894736842105263" x="316.6666666666667" y="465.2192982456141" stroke="none" fill="hsla(0, 0%, 0%, 1.00)" rx="1.4473684210526314"></rect><rect width="2.894736842105263" height="33.333333333333336" x="331.8859649122807" y="450.00000000000006" stroke="none" fill="hsla(0, 0%, 0%, 1.00)" rx="1.4473684210526314"></rect><rect width="33.333333333333336" height="2.894736842105263" x="383.33333333333337" y="465.2192982456141" stroke="none" fill="hsla(0, 0%, 0%, 1.00)" rx="1.4473684210526314"></rect><rect width="2.894736842105263" height="33.333333333333336" x="398.5526315789474" y="450.00000000000006" stroke="none" fill="hsla(0, 0%, 0%, 1.00)" rx="1.4473684210526314"></rect><rect width="33.333333333333336" height="2.894736842105263" x="450.00000000000006" y="465.2192982456141" stroke="none" fill="hsla(0, 0%, 0%, 1.00)" rx="1.4473684210526314"></rect><rect width="2.894736842105263" height="33.333333333333336" x="465.2192982456141" y="450.00000000000006" stroke="none" fill="hsla(0, 0%, 0%, 1.00)" rx="1.4473684210526314"></rect><rect width="33.333333333333336" height="2.894736842105263" x="516.6666666666667" y="465.2192982456141" stroke="none" fill="hsla(0, 0%, 0%, 1.00)" rx="1.4473684210526314"></rect><rect width="2.894736842105263" height="33.333333333333336" x="531.8859649122808" y="450.00000000000006" stroke="none" fill="hsla(0, 0%, 0%, 1.00)" rx="1.4473684210526314"></rect><rect width="33.333333333333336" height="2.894736842105263" x="583.3333333333334" y="465.2192982456141" stroke="none" fill="hsla(0, 0%, 0%, 1.00)" rx="1.4473684210526314"></rect><rect width="2.894736842105263" height="33.333333333333336" x="598.5526315789474" y="450.00000000000006" stroke="none" fill="hsla(0, 0%, 0%, 1.00)" rx="1.4473684210526314"></rect><rect width="33.333333333333336" height="2.894736842105263" x="650" y="465.2192982456141" stroke="none" fill="hsla(0, 0%, 0%, 1.00)" rx="1.4473684210526314"></rect><rect width="2.894736842105263" height="33.333333333333336" x="665.219298245614" y="450.00000000000006" stroke="none" fill="hsla(0, 0%, 0%, 1.00)" rx="1.4473684210526314"></rect><rect width="33.333333333333336" height="2.894736842105263" x="716.6666666666666" y="465.2192982456141" stroke="none" fill="hsla(0, 0%, 0%, 1.00)" rx="1.4473684210526314"></rect><rect width="2.894736842105263" height="33.333333333333336" x="731.8859649122807" y="450.00000000000006" stroke="none" fill="hsla(0, 0%, 0%, 1.00)" rx="1.4473684210526314"></rect><rect width="33.333333333333336" height="2.894736842105263" x="783.3333333333333" y="465.2192982456141" stroke="none" fill="hsla(0, 0%, 0%, 1.00)" rx="1.4473684210526314"></rect><rect width="2.894736842105263" height="33.333333333333336" x="798.5526315789473" y="450.00000000000006" stroke="none" fill="hsla(0, 0%, 0%, 1.00)" rx="1.4473684210526314"></rect><rect width="33.333333333333336" height="2.894736842105263" x="-16.666666666666668" y="531.8859649122808" stroke="none" fill="hsla(0, 0%, 0%, 1.00)" rx="1.4473684210526314"></rect><rect width="2.894736842105263" height="33.333333333333336" x="-1.4473684210526314" y="516.6666666666667" stroke="none" fill="hsla(0, 0%, 0%, 1.00)" rx="1.4473684210526314"></rect><rect width="33.333333333333336" height="2.894736842105263" x="50" y="531.8859649122808" stroke="none" fill="hsla(0, 0%, 0%, 1.00)" rx="1.4473684210526314"></rect><rect width="2.894736842105263" height="33.333333333333336" x="65.21929824561404" y="516.6666666666667" stroke="none" fill="hsla(0, 0%, 0%, 1.00)" rx="1.4473684210526314"></rect><rect width="33.333333333333336" height="2.894736842105263" x="116.66666666666667" y="531.8859649122808" stroke="none" fill="hsla(0, 0%, 0%, 1.00)" rx="1.4473684210526314"></rect><rect width="2.894736842105263" height="33.333333333333336" x="131.8859649122807" y="516.6666666666667" stroke="none" fill="hsla(0, 0%, 0%, 1.00)" rx="1.4473684210526314"></rect><rect width="33.333333333333336" height="2.894736842105263" x="183.33333333333334" y="531.8859649122808" stroke="none" fill="hsla(0, 0%, 0%, 1.00)" rx="1.4473684210526314"></rect><rect width="2.894736842105263" height="33.333333333333336" x="198.55263157894737" y="516.6666666666667" stroke="none" fill="hsla(0, 0%, 0%, 1.00)" rx="1.4473684210526314"></rect><rect width="33.333333333333336" height="2.894736842105263" x="250.00000000000003" y="531.8859649122808" stroke="none" fill="hsla(0, 0%, 0%, 1.00)" rx="1.4473684210526314"></rect><rect width="2.894736842105263" height="33.333333333333336" x="265.219298245614" y="516.6666666666667" stroke="none" fill="hsla(0, 0%, 0%, 1.00)" rx="1.4473684210526314"></rect><rect width="33.333333333333336" height="2.894736842105263" x="316.6666666666667" y="531.8859649122808" stroke="none" fill="hsla(0, 0%, 0%, 1.00)" rx="1.4473684210526314"></rect><rect width="2.894736842105263" height="33.333333333333336" x="331.8859649122807" y="516.6666666666667" stroke="none" fill="hsla(0, 0%, 0%, 1.00)" rx="1.4473684210526314"></rect><rect width="33.333333333333336" height="2.894736842105263" x="383.33333333333337" y="531.8859649122808" stroke="none" fill="hsla(0, 0%, 0%, 1.00)" rx="1.4473684210526314"></rect><rect width="2.894736842105263" height="33.333333333333336" x="398.5526315789474" y="516.6666666666667" stroke="none" fill="hsla(0, 0%, 0%, 1.00)" rx="1.4473684210526314"></rect><rect width="33.333333333333336" height="2.894736842105263" x="450.00000000000006" y="531.8859649122808" stroke="none" fill="hsla(0, 0%, 0%, 1.00)" rx="1.4473684210526314"></rect><rect width="2.894736842105263" height="33.333333333333336" x="465.2192982456141" y="516.6666666666667" stroke="none" fill="hsla(0, 0%, 0%, 1.00)" rx="1.4473684210526314"></rect><rect width="33.333333333333336" height="2.894736842105263" x="516.6666666666667" y="531.8859649122808" stroke="none" fill="hsla(0, 0%, 0%, 1.00)" rx="1.4473684210526314"></rect><rect width="2.894736842105263" height="33.333333333333336" x="531.8859649122808" y="516.6666666666667" stroke="none" fill="hsla(0, 0%, 0%, 1.00)" rx="1.4473684210526314"></rect><rect width="33.333333333333336" height="2.894736842105263" x="583.3333333333334" y="531.8859649122808" stroke="none" fill="hsla(0, 0%, 0%, 1.00)" rx="1.4473684210526314"></rect><rect width="2.894736842105263" height="33.333333333333336" x="598.5526315789474" y="516.6666666666667" stroke="none" fill="hsla(0, 0%, 0%, 1.00)" rx="1.4473684210526314"></rect><rect width="33.333333333333336" height="2.894736842105263" x="650" y="531.8859649122808" stroke="none" fill="hsla(0, 0%, 0%, 1.00)" rx="1.4473684210526314"></rect><rect width="2.894736842105263" height="33.333333333333336" x="665.219298245614" y="516.6666666666667" stroke="none" fill="hsla(0, 0%, 0%, 1.00)" rx="1.4473684210526314"></rect><rect width="33.333333333333336" height="2.894736842105263" x="716.6666666666666" y="531.8859649122808" stroke="none" fill="hsla(0, 0%, 0%, 1.00)" rx="1.4473684210526314"></rect><rect width="2.894736842105263" height="33.333333333333336" x="731.8859649122807" y="516.6666666666667" stroke="none" fill="hsla(0, 0%, 0%, 1.00)" rx="1.4473684210526314"></rect><rect width="33.333333333333336" height="2.894736842105263" x="783.3333333333333" y="531.8859649122808" stroke="none" fill="hsla(0, 0%, 0%, 1.00)" rx="1.4473684210526314"></rect><rect width="2.894736842105263" height="33.333333333333336" x="798.5526315789473" y="516.6666666666667" stroke="none" fill="hsla(0, 0%, 0%, 1.00)" rx="1.4473684210526314"></rect><rect width="33.333333333333336" height="2.894736842105263" x="-16.666666666666668" y="598.5526315789474" stroke="none" fill="hsla(0, 0%, 0%, 1.00)" rx="1.4473684210526314"></rect><rect width="2.894736842105263" height="33.333333333333336" x="-1.4473684210526314" y="583.3333333333334" stroke="none" fill="hsla(0, 0%, 0%, 1.00)" rx="1.4473684210526314"></rect><rect width="33.333333333333336" height="2.894736842105263" x="50" y="598.5526315789474" stroke="none" fill="hsla(0, 0%, 0%, 1.00)" rx="1.4473684210526314"></rect><rect width="2.894736842105263" height="33.333333333333336" x="65.21929824561404" y="583.3333333333334" stroke="none" fill="hsla(0, 0%, 0%, 1.00)" rx="1.4473684210526314"></rect><rect width="33.333333333333336" height="2.894736842105263" x="116.66666666666667" y="598.5526315789474" stroke="none" fill="hsla(0, 0%, 0%, 1.00)" rx="1.4473684210526314"></rect><rect width="2.894736842105263" height="33.333333333333336" x="131.8859649122807" y="583.3333333333334" stroke="none" fill="hsla(0, 0%, 0%, 1.00)" rx="1.4473684210526314"></rect><rect width="33.333333333333336" height="2.894736842105263" x="183.33333333333334" y="598.5526315789474" stroke="none" fill="hsla(0, 0%, 0%, 1.00)" rx="1.4473684210526314"></rect><rect width="2.894736842105263" height="33.333333333333336" x="198.55263157894737" y="583.3333333333334" stroke="none" fill="hsla(0, 0%, 0%, 1.00)" rx="1.4473684210526314"></rect><rect width="33.333333333333336" height="2.894736842105263" x="250.00000000000003" y="598.5526315789474" stroke="none" fill="hsla(0, 0%, 0%, 1.00)" rx="1.4473684210526314"></rect><rect width="2.894736842105263" height="33.333333333333336" x="265.219298245614" y="583.3333333333334" stroke="none" fill="hsla(0, 0%, 0%, 1.00)" rx="1.4473684210526314"></rect><rect width="33.333333333333336" height="2.894736842105263" x="316.6666666666667" y="598.5526315789474" stroke="none" fill="hsla(0, 0%, 0%, 1.00)" rx="1.4473684210526314"></rect><rect width="2.894736842105263" height="33.333333333333336" x="331.8859649122807" y="583.3333333333334" stroke="none" fill="hsla(0, 0%, 0%, 1.00)" rx="1.4473684210526314"></rect><rect width="33.333333333333336" height="2.894736842105263" x="383.33333333333337" y="598.5526315789474" stroke="none" fill="hsla(0, 0%, 0%, 1.00)" rx="1.4473684210526314"></rect><rect width="2.894736842105263" height="33.333333333333336" x="398.5526315789474" y="583.3333333333334" stroke="none" fill="hsla(0, 0%, 0%, 1.00)" rx="1.4473684210526314"></rect><rect width="33.333333333333336" height="2.894736842105263" x="450.00000000000006" y="598.5526315789474" stroke="none" fill="hsla(0, 0%, 0%, 1.00)" rx="1.4473684210526314"></rect><rect width="2.894736842105263" height="33.333333333333336" x="465.2192982456141" y="583.3333333333334" stroke="none" fill="hsla(0, 0%, 0%, 1.00)" rx="1.4473684210526314"></rect><rect width="33.333333333333336" height="2.894736842105263" x="516.6666666666667" y="598.5526315789474" stroke="none" fill="hsla(0, 0%, 0%, 1.00)" rx="1.4473684210526314"></rect><rect width="2.894736842105263" height="33.333333333333336" x="531.8859649122808" y="583.3333333333334" stroke="none" fill="hsla(0, 0%, 0%, 1.00)" rx="1.4473684210526314"></rect><rect width="33.333333333333336" height="2.894736842105263" x="583.3333333333334" y="598.5526315789474" stroke="none" fill="hsla(0, 0%, 0%, 1.00)" rx="1.4473684210526314"></rect><rect width="2.894736842105263" height="33.333333333333336" x="598.5526315789474" y="583.3333333333334" stroke="none" fill="hsla(0, 0%, 0%, 1.00)" rx="1.4473684210526314"></rect><rect width="33.333333333333336" height="2.894736842105263" x="650" y="598.5526315789474" stroke="none" fill="hsla(0, 0%, 0%, 1.00)" rx="1.4473684210526314"></rect><rect width="2.894736842105263" height="33.333333333333336" x="665.219298245614" y="583.3333333333334" stroke="none" fill="hsla(0, 0%, 0%, 1.00)" rx="1.4473684210526314"></rect><rect width="33.333333333333336" height="2.894736842105263" x="716.6666666666666" y="598.5526315789474" stroke="none" fill="hsla(0, 0%, 0%, 1.00)" rx="1.4473684210526314"></rect><rect width="2.894736842105263" height="33.333333333333336" x="731.8859649122807" y="583.3333333333334" stroke="none" fill="hsla(0, 0%, 0%, 1.00)" rx="1.4473684210526314"></rect><rect width="33.333333333333336" height="2.894736842105263" x="783.3333333333333" y="598.5526315789474" stroke="none" fill="hsla(0, 0%, 0%, 1.00)" rx="1.4473684210526314"></rect><rect width="2.894736842105263" height="33.333333333333336" x="798.5526315789473" y="583.3333333333334" stroke="none" fill="hsla(0, 0%, 0%, 1.00)" rx="1.4473684210526314"></rect><rect width="33.333333333333336" height="2.894736842105263" x="-16.666666666666668" y="665.219298245614" stroke="none" fill="hsla(0, 0%, 0%, 1.00)" rx="1.4473684210526314"></rect><rect width="2.894736842105263" height="33.333333333333336" x="-1.4473684210526314" y="650" stroke="none" fill="hsla(0, 0%, 0%, 1.00)" rx="1.4473684210526314"></rect><rect width="33.333333333333336" height="2.894736842105263" x="50" y="665.219298245614" stroke="none" fill="hsla(0, 0%, 0%, 1.00)" rx="1.4473684210526314"></rect><rect width="2.894736842105263" height="33.333333333333336" x="65.21929824561404" y="650" stroke="none" fill="hsla(0, 0%, 0%, 1.00)" rx="1.4473684210526314"></rect><rect width="33.333333333333336" height="2.894736842105263" x="116.66666666666667" y="665.219298245614" stroke="none" fill="hsla(0, 0%, 0%, 1.00)" rx="1.4473684210526314"></rect><rect width="2.894736842105263" height="33.333333333333336" x="131.8859649122807" y="650" stroke="none" fill="hsla(0, 0%, 0%, 1.00)" rx="1.4473684210526314"></rect><rect width="33.333333333333336" height="2.894736842105263" x="183.33333333333334" y="665.219298245614" stroke="none" fill="hsla(0, 0%, 0%, 1.00)" rx="1.4473684210526314"></rect><rect width="2.894736842105263" height="33.333333333333336" x="198.55263157894737" y="650" stroke="none" fill="hsla(0, 0%, 0%, 1.00)" rx="1.4473684210526314"></rect><rect width="33.333333333333336" height="2.894736842105263" x="250.00000000000003" y="665.219298245614" stroke="none" fill="hsla(0, 0%, 0%, 1.00)" rx="1.4473684210526314"></rect><rect width="2.894736842105263" height="33.333333333333336" x="265.219298245614" y="650" stroke="none" fill="hsla(0, 0%, 0%, 1.00)" rx="1.4473684210526314"></rect><rect width="33.333333333333336" height="2.894736842105263" x="316.6666666666667" y="665.219298245614" stroke="none" fill="hsla(0, 0%, 0%, 1.00)" rx="1.4473684210526314"></rect><rect width="2.894736842105263" height="33.333333333333336" x="331.8859649122807" y="650" stroke="none" fill="hsla(0, 0%, 0%, 1.00)" rx="1.4473684210526314"></rect><rect width="33.333333333333336" height="2.894736842105263" x="383.33333333333337" y="665.219298245614" stroke="none" fill="hsla(0, 0%, 0%, 1.00)" rx="1.4473684210526314"></rect><rect width="2.894736842105263" height="33.333333333333336" x="398.5526315789474" y="650" stroke="none" fill="hsla(0, 0%, 0%, 1.00)" rx="1.4473684210526314"></rect><rect width="33.333333333333336" height="2.894736842105263" x="450.00000000000006" y="665.219298245614" stroke="none" fill="hsla(0, 0%, 0%, 1.00)" rx="1.4473684210526314"></rect><rect width="2.894736842105263" height="33.333333333333336" x="465.2192982456141" y="650" stroke="none" fill="hsla(0, 0%, 0%, 1.00)" rx="1.4473684210526314"></rect><rect width="33.333333333333336" height="2.894736842105263" x="516.6666666666667" y="665.219298245614" stroke="none" fill="hsla(0, 0%, 0%, 1.00)" rx="1.4473684210526314"></rect><rect width="2.894736842105263" height="33.333333333333336" x="531.8859649122808" y="650" stroke="none" fill="hsla(0, 0%, 0%, 1.00)" rx="1.4473684210526314"></rect><rect width="33.333333333333336" height="2.894736842105263" x="583.3333333333334" y="665.219298245614" stroke="none" fill="hsla(0, 0%, 0%, 1.00)" rx="1.4473684210526314"></rect><rect width="2.894736842105263" height="33.333333333333336" x="598.5526315789474" y="650" stroke="none" fill="hsla(0, 0%, 0%, 1.00)" rx="1.4473684210526314"></rect><rect width="33.333333333333336" height="2.894736842105263" x="650" y="665.219298245614" stroke="none" fill="hsla(0, 0%, 0%, 1.00)" rx="1.4473684210526314"></rect><rect width="2.894736842105263" height="33.333333333333336" x="665.219298245614" y="650" stroke="none" fill="hsla(0, 0%, 0%, 1.00)" rx="1.4473684210526314"></rect><rect width="33.333333333333336" height="2.894736842105263" x="716.6666666666666" y="665.219298245614" stroke="none" fill="hsla(0, 0%, 0%, 1.00)" rx="1.4473684210526314"></rect><rect width="2.894736842105263" height="33.333333333333336" x="731.8859649122807" y="650" stroke="none" fill="hsla(0, 0%, 0%, 1.00)" rx="1.4473684210526314"></rect><rect width="33.333333333333336" height="2.894736842105263" x="783.3333333333333" y="665.219298245614" stroke="none" fill="hsla(0, 0%, 0%, 1.00)" rx="1.4473684210526314"></rect><rect width="2.894736842105263" height="33.333333333333336" x="798.5526315789473" y="650" stroke="none" fill="hsla(0, 0%, 0%, 1.00)" rx="1.4473684210526314"></rect><rect width="33.333333333333336" height="2.894736842105263" x="-16.666666666666668" y="731.8859649122807" stroke="none" fill="hsla(0, 0%, 0%, 1.00)" rx="1.4473684210526314"></rect><rect width="2.894736842105263" height="33.333333333333336" x="-1.4473684210526314" y="716.6666666666666" stroke="none" fill="hsla(0, 0%, 0%, 1.00)" rx="1.4473684210526314"></rect><rect width="33.333333333333336" height="2.894736842105263" x="50" y="731.8859649122807" stroke="none" fill="hsla(0, 0%, 0%, 1.00)" rx="1.4473684210526314"></rect><rect width="2.894736842105263" height="33.333333333333336" x="65.21929824561404" y="716.6666666666666" stroke="none" fill="hsla(0, 0%, 0%, 1.00)" rx="1.4473684210526314"></rect><rect width="33.333333333333336" height="2.894736842105263" x="116.66666666666667" y="731.8859649122807" stroke="none" fill="hsla(0, 0%, 0%, 1.00)" rx="1.4473684210526314"></rect><rect width="2.894736842105263" height="33.333333333333336" x="131.8859649122807" y="716.6666666666666" stroke="none" fill="hsla(0, 0%, 0%, 1.00)" rx="1.4473684210526314"></rect><rect width="33.333333333333336" height="2.894736842105263" x="183.33333333333334" y="731.8859649122807" stroke="none" fill="hsla(0, 0%, 0%, 1.00)" rx="1.4473684210526314"></rect><rect width="2.894736842105263" height="33.333333333333336" x="198.55263157894737" y="716.6666666666666" stroke="none" fill="hsla(0, 0%, 0%, 1.00)" rx="1.4473684210526314"></rect><rect width="33.333333333333336" height="2.894736842105263" x="250.00000000000003" y="731.8859649122807" stroke="none" fill="hsla(0, 0%, 0%, 1.00)" rx="1.4473684210526314"></rect><rect width="2.894736842105263" height="33.333333333333336" x="265.219298245614" y="716.6666666666666" stroke="none" fill="hsla(0, 0%, 0%, 1.00)" rx="1.4473684210526314"></rect><rect width="33.333333333333336" height="2.894736842105263" x="316.6666666666667" y="731.8859649122807" stroke="none" fill="hsla(0, 0%, 0%, 1.00)" rx="1.4473684210526314"></rect><rect width="2.894736842105263" height="33.333333333333336" x="331.8859649122807" y="716.6666666666666" stroke="none" fill="hsla(0, 0%, 0%, 1.00)" rx="1.4473684210526314"></rect><rect width="33.333333333333336" height="2.894736842105263" x="383.33333333333337" y="731.8859649122807" stroke="none" fill="hsla(0, 0%, 0%, 1.00)" rx="1.4473684210526314"></rect><rect width="2.894736842105263" height="33.333333333333336" x="398.5526315789474" y="716.6666666666666" stroke="none" fill="hsla(0, 0%, 0%, 1.00)" rx="1.4473684210526314"></rect><rect width="33.333333333333336" height="2.894736842105263" x="450.00000000000006" y="731.8859649122807" stroke="none" fill="hsla(0, 0%, 0%, 1.00)" rx="1.4473684210526314"></rect><rect width="2.894736842105263" height="33.333333333333336" x="465.2192982456141" y="716.6666666666666" stroke="none" fill="hsla(0, 0%, 0%, 1.00)" rx="1.4473684210526314"></rect><rect width="33.333333333333336" height="2.894736842105263" x="516.6666666666667" y="731.8859649122807" stroke="none" fill="hsla(0, 0%, 0%, 1.00)" rx="1.4473684210526314"></rect><rect width="2.894736842105263" height="33.333333333333336" x="531.8859649122808" y="716.6666666666666" stroke="none" fill="hsla(0, 0%, 0%, 1.00)" rx="1.4473684210526314"></rect><rect width="33.333333333333336" height="2.894736842105263" x="583.3333333333334" y="731.8859649122807" stroke="none" fill="hsla(0, 0%, 0%, 1.00)" rx="1.4473684210526314"></rect><rect width="2.894736842105263" height="33.333333333333336" x="598.5526315789474" y="716.6666666666666" stroke="none" fill="hsla(0, 0%, 0%, 1.00)" rx="1.4473684210526314"></rect><rect width="33.333333333333336" height="2.894736842105263" x="650" y="731.8859649122807" stroke="none" fill="hsla(0, 0%, 0%, 1.00)" rx="1.4473684210526314"></rect><rect width="2.894736842105263" height="33.333333333333336" x="665.219298245614" y="716.6666666666666" stroke="none" fill="hsla(0, 0%, 0%, 1.00)" rx="1.4473684210526314"></rect><rect width="33.333333333333336" height="2.894736842105263" x="716.6666666666666" y="731.8859649122807" stroke="none" fill="hsla(0, 0%, 0%, 1.00)" rx="1.4473684210526314"></rect><rect width="2.894736842105263" height="33.333333333333336" x="731.8859649122807" y="716.6666666666666" stroke="none" fill="hsla(0, 0%, 0%, 1.00)" rx="1.4473684210526314"></rect><rect width="33.333333333333336" height="2.894736842105263" x="783.3333333333333" y="731.8859649122807" stroke="none" fill="hsla(0, 0%, 0%, 1.00)" rx="1.4473684210526314"></rect><rect width="2.894736842105263" height="33.333333333333336" x="798.5526315789473" y="716.6666666666666" stroke="none" fill="hsla(0, 0%, 0%, 1.00)" rx="1.4473684210526314"></rect><rect width="33.333333333333336" height="2.894736842105263" x="-16.666666666666668" y="798.5526315789473" stroke="none" fill="hsla(0, 0%, 0%, 1.00)" rx="1.4473684210526314"></rect><rect width="2.894736842105263" height="33.333333333333336" x="-1.4473684210526314" y="783.3333333333333" stroke="none" fill="hsla(0, 0%, 0%, 1.00)" rx="1.4473684210526314"></rect><rect width="33.333333333333336" height="2.894736842105263" x="50" y="798.5526315789473" stroke="none" fill="hsla(0, 0%, 0%, 1.00)" rx="1.4473684210526314"></rect><rect width="2.894736842105263" height="33.333333333333336" x="65.21929824561404" y="783.3333333333333" stroke="none" fill="hsla(0, 0%, 0%, 1.00)" rx="1.4473684210526314"></rect><rect width="33.333333333333336" height="2.894736842105263" x="116.66666666666667" y="798.5526315789473" stroke="none" fill="hsla(0, 0%, 0%, 1.00)" rx="1.4473684210526314"></rect><rect width="2.894736842105263" height="33.333333333333336" x="131.8859649122807" y="783.3333333333333" stroke="none" fill="hsla(0, 0%, 0%, 1.00)" rx="1.4473684210526314"></rect><rect width="33.333333333333336" height="2.894736842105263" x="183.33333333333334" y="798.5526315789473" stroke="none" fill="hsla(0, 0%, 0%, 1.00)" rx="1.4473684210526314"></rect><rect width="2.894736842105263" height="33.333333333333336" x="198.55263157894737" y="783.3333333333333" stroke="none" fill="hsla(0, 0%, 0%, 1.00)" rx="1.4473684210526314"></rect><rect width="33.333333333333336" height="2.894736842105263" x="250.00000000000003" y="798.5526315789473" stroke="none" fill="hsla(0, 0%, 0%, 1.00)" rx="1.4473684210526314"></rect><rect width="2.894736842105263" height="33.333333333333336" x="265.219298245614" y="783.3333333333333" stroke="none" fill="hsla(0, 0%, 0%, 1.00)" rx="1.4473684210526314"></rect><rect width="33.333333333333336" height="2.894736842105263" x="316.6666666666667" y="798.5526315789473" stroke="none" fill="hsla(0, 0%, 0%, 1.00)" rx="1.4473684210526314"></rect><rect width="2.894736842105263" height="33.333333333333336" x="331.8859649122807" y="783.3333333333333" stroke="none" fill="hsla(0, 0%, 0%, 1.00)" rx="1.4473684210526314"></rect><rect width="33.333333333333336" height="2.894736842105263" x="383.33333333333337" y="798.5526315789473" stroke="none" fill="hsla(0, 0%, 0%, 1.00)" rx="1.4473684210526314"></rect><rect width="2.894736842105263" height="33.333333333333336" x="398.5526315789474" y="783.3333333333333" stroke="none" fill="hsla(0, 0%, 0%, 1.00)" rx="1.4473684210526314"></rect><rect width="33.333333333333336" height="2.894736842105263" x="450.00000000000006" y="798.5526315789473" stroke="none" fill="hsla(0, 0%, 0%, 1.00)" rx="1.4473684210526314"></rect><rect width="2.894736842105263" height="33.333333333333336" x="465.2192982456141" y="783.3333333333333" stroke="none" fill="hsla(0, 0%, 0%, 1.00)" rx="1.4473684210526314"></rect><rect width="33.333333333333336" height="2.894736842105263" x="516.6666666666667" y="798.5526315789473" stroke="none" fill="hsla(0, 0%, 0%, 1.00)" rx="1.4473684210526314"></rect><rect width="2.894736842105263" height="33.333333333333336" x="531.8859649122808" y="783.3333333333333" stroke="none" fill="hsla(0, 0%, 0%, 1.00)" rx="1.4473684210526314"></rect><rect width="33.333333333333336" height="2.894736842105263" x="583.3333333333334" y="798.5526315789473" stroke="none" fill="hsla(0, 0%, 0%, 1.00)" rx="1.4473684210526314"></rect><rect width="2.894736842105263" height="33.333333333333336" x="598.5526315789474" y="783.3333333333333" stroke="none" fill="hsla(0, 0%, 0%, 1.00)" rx="1.4473684210526314"></rect><rect width="33.333333333333336" height="2.894736842105263" x="650" y="798.5526315789473" stroke="none" fill="hsla(0, 0%, 0%, 1.00)" rx="1.4473684210526314"></rect><rect width="2.894736842105263" height="33.333333333333336" x="665.219298245614" y="783.3333333333333" stroke="none" fill="hsla(0, 0%, 0%, 1.00)" rx="1.4473684210526314"></rect><rect width="33.333333333333336" height="2.894736842105263" x="716.6666666666666" y="798.5526315789473" stroke="none" fill="hsla(0, 0%, 0%, 1.00)" rx="1.4473684210526314"></rect><rect width="2.894736842105263" height="33.333333333333336" x="731.8859649122807" y="783.3333333333333" stroke="none" fill="hsla(0, 0%, 0%, 1.00)" rx="1.4473684210526314"></rect><rect width="33.333333333333336" height="2.894736842105263" x="783.3333333333333" y="798.5526315789473" stroke="none" fill="hsla(0, 0%, 0%, 1.00)" rx="1.4473684210526314"></rect><rect width="2.894736842105263" height="33.333333333333336" x="798.5526315789473" y="783.3333333333333" stroke="none" fill="hsla(0, 0%, 0%, 1.00)" rx="1.4473684210526314"></rect></g></svg>