<svg id="visual" viewBox="0 0 900 600" width="900" height="600" xmlns="http://www.w3.org/2000/svg" xmlns:xlink="http://www.w3.org/1999/xlink" version="1.1"><path d="M304 0L311.2 14.3C318.3 28.7 332.7 57.3 326 85.8C319.3 114.3 291.7 142.7 282.7 171.2C273.7 199.7 283.3 228.3 283.8 257C284.3 285.7 275.7 314.3 278.2 343C280.7 371.7 294.3 400.3 311.7 428.8C329 457.3 350 485.7 341 514.2C332 542.7 293 571.3 273.5 585.7L254 600L0 600L0 585.7C0 571.3 0 542.7 0 514.2C0 485.7 0 457.3 0 428.8C0 400.3 0 371.7 0 343C0 314.3 0 285.7 0 257C0 228.3 0 199.7 0 171.2C0 142.7 0 114.3 0 85.8C0 57.3 0 28.7 0 14.3L0 0Z" fill="#e5709f"></path><path d="M222 0L233.3 14.3C244.7 28.7 267.3 57.3 265.2 85.8C263 114.3 236 142.7 227.2 171.2C218.3 199.7 227.7 228.3 232.7 257C237.7 285.7 238.3 314.3 238.8 343C239.3 371.7 239.7 400.3 244.3 428.8C249 457.3 258 485.7 268.7 514.2C279.3 542.7 291.7 571.3 297.8 585.7L304 600L0 600L0 585.7C0 571.3 0 542.7 0 514.2C0 485.7 0 457.3 0 428.8C0 400.3 0 371.7 0 343C0 314.3 0 285.7 0 257C0 228.3 0 199.7 0 171.2C0 142.7 0 114.3 0 85.8C0 57.3 0 28.7 0 14.3L0 0Z" fill="#ca5da4"></path><path d="M241 0L239.3 14.3C237.7 28.7 234.3 57.3 226.3 85.8C218.3 114.3 205.7 142.7 191.2 171.2C176.7 199.7 160.3 228.3 161.8 257C163.3 285.7 182.7 314.3 192.3 343C202 371.7 202 400.3 204.8 428.8C207.7 457.3 213.3 485.7 215.2 514.2C217 542.7 215 571.3 214 585.7L213 600L0 600L0 585.7C0 571.3 0 542.7 0 514.2C0 485.7 0 457.3 0 428.8C0 400.3 0 371.7 0 343C0 314.3 0 285.7 0 257C0 228.3 0 199.7 0 171.2C0 142.7 0 114.3 0 85.8C0 57.3 0 28.7 0 14.3L0 0Z" fill="#a84faa"></path><path d="M149 0L140.2 14.3C131.3 28.7 113.7 57.3 105.2 85.8C96.7 114.3 97.3 142.7 105.3 171.2C113.3 199.7 128.7 228.3 132.7 257C136.7 285.7 129.3 314.3 131.3 343C133.3 371.7 144.7 400.3 153.7 428.8C162.7 457.3 169.3 485.7 167.7 514.2C166 542.7 156 571.3 151 585.7L146 600L0 600L0 585.7C0 571.3 0 542.7 0 514.2C0 485.7 0 457.3 0 428.8C0 400.3 0 371.7 0 343C0 314.3 0 285.7 0 257C0 228.3 0 199.7 0 171.2C0 142.7 0 114.3 0 85.8C0 57.3 0 28.7 0 14.3L0 0Z" fill="#7b47af"></path><path d="M92 0L93.5 14.3C95 28.7 98 57.3 89.2 85.8C80.3 114.3 59.7 142.7 55.8 171.2C52 199.7 65 228.3 72.2 257C79.3 285.7 80.7 314.3 80.5 343C80.3 371.7 78.7 400.3 76.3 428.8C74 457.3 71 485.7 74.8 514.2C78.7 542.7 89.3 571.3 94.7 585.7L100 600L0 600L0 585.7C0 571.3 0 542.7 0 514.2C0 485.7 0 457.3 0 428.8C0 400.3 0 371.7 0 343C0 314.3 0 285.7 0 257C0 228.3 0 199.7 0 171.2C0 142.7 0 114.3 0 85.8C0 57.3 0 28.7 0 14.3L0 0Z" fill="#3443b0"></path></svg>