<svg id="visual" viewBox="0 0 960 540" width="960" height="540" xmlns="http://www.w3.org/2000/svg" xmlns:xlink="http://www.w3.org/1999/xlink" version="1.1"><rect x="0" y="0" width="960" height="540" fill="#001220"></rect><defs><linearGradient id="grad1_0" x1="43.8%" y1="0%" x2="100%" y2="100%"><stop offset="14.444444444444446%" stop-color="#001220" stop-opacity="1"></stop><stop offset="85.55555555555554%" stop-color="#001220" stop-opacity="1"></stop></linearGradient></defs><defs><linearGradient id="grad2_0" x1="0%" y1="0%" x2="56.3%" y2="100%"><stop offset="14.444444444444446%" stop-color="#001220" stop-opacity="1"></stop><stop offset="85.55555555555554%" stop-color="#001220" stop-opacity="1"></stop></linearGradient></defs><g transform="translate(960, 0)"><path d="M0 486C-71.5 485.6 -142.9 485.2 -184.8 446.2C-226.8 407.3 -239.2 329.8 -285 285C-330.8 240.2 -409.9 228 -449 186C-488.1 143.9 -487 72 -486 0L0 0Z" fill="#50ba80"></path></g><g transform="translate(0, 540)"><path d="M0 -486C57.4 -456.7 114.7 -427.4 165.3 -399.1C215.9 -370.8 259.7 -343.5 310.4 -310.4C361.1 -277.4 418.6 -238.7 449 -186C479.4 -133.3 482.7 -66.6 486 0L0 0Z" fill="#50ba80"></path></g></svg>